<svg id="Groupe_242" data-name="Groupe 242" xmlns="http://www.w3.org/2000/svg" xmlns:xlink="http://www.w3.org/1999/xlink" width="411.771" height="96.506" viewBox="0 0 411.771 96.506">
  <defs>
    <clipPath id="clip-path">
      <rect id="Rectangle_213" data-name="Rectangle 213" width="411.771" height="96.506" fill="none"/>
    </clipPath>
  </defs>
  <g id="Groupe_241" data-name="Groupe 241" clip-path="url(#clip-path)">
    <text id="MERASHIP" transform="translate(97.644 60.626)" fill="#fff" font-size="60" font-family="ProximaNova-Extrabld, Proxima Nova"><tspan x="0" y="0">MER</tspan><tspan y="0" letter-spacing="-0.003em">A</tspan><tspan y="0">SHIP</tspan></text>
    <text id="Expédiez_vos_colis_en_toute_simplicité" data-name="Expédiez vos colis en toute simplicité" transform="translate(100.067 82.486)" fill="#fff" font-size="19" font-family="ProximaNova-Light, Proxima Nova" font-weight="300"><tspan x="0" y="0">Expédiez vos colis en toute simplicité</tspan></text>
    <path id="Tracé_1872" data-name="Tracé 1872" d="M87.836,83.411,70.687,86.624V17.239a.793.793,0,0,0-.794-.794H54.027a.786.786,0,0,0-.74.516l-9.148,24.7a.79.79,0,0,1-1.481,0L33.576,16.966a.784.784,0,0,0-.74-.521H16.966a.793.793,0,0,0-.79.794V63.682a.792.792,0,0,0,.79.794h10.8a.789.789,0,0,0,.79-.794V36.447a.792.792,0,0,1,1.535-.274L40.468,63.96a.787.787,0,0,0,.74.516h4.375a.791.791,0,0,0,.74-.516L56.769,36.147a.79.79,0,0,1,1.53.278V88.944L18.231,96.45a3.2,3.2,0,0,1-3.742-2.558L.055,16.836a3.21,3.21,0,0,1,2.562-3.742L72.217.055a3.207,3.207,0,0,1,3.742,2.562L90.393,79.673a3.2,3.2,0,0,1-2.558,3.738" transform="translate(0 0)" fill="#fff"/>
  </g>
</svg>
