<svg id="Groupe_3" data-name="Groupe 3" xmlns="http://www.w3.org/2000/svg" xmlns:xlink="http://www.w3.org/1999/xlink" width="182.971" height="91.656" viewBox="0 0 182.971 91.656">
  <defs>
    <clipPath id="clip-path">
      <rect id="Rectangle_24" data-name="Rectangle 24" width="182.971" height="91.656" fill="#fff"/>
    </clipPath>
  </defs>
  <path id="Tracé_10" data-name="Tracé 10" d="M22.752,0,17.229,36.593,11.265,0H0V51.54H7.069V15.094L13.106,51.54h7.657l5.6-36.962V51.54h7.657V0Z" transform="translate(0 0)" fill="#fff"/>
  <path id="Tracé_11" data-name="Tracé 11" d="M227.144,0V51.54h22.089V44.178H235.244V29.083h11.118V21.72H235.244V7.363h13.989V0Z" transform="translate(-187.237 0)" fill="#fff"/>
  <g id="Groupe_2" data-name="Groupe 2" transform="translate(0 0)">
    <g id="Groupe_1" data-name="Groupe 1" clip-path="url(#clip-path)">
      <path id="Tracé_12" data-name="Tracé 12" d="M398.306,51.54c-.442-1.325-.736-2.135-.736-6.332v-8.1c0-4.786-1.62-6.553-5.3-6.553h-2.8V51.54h-8.1V0h12.223c8.393,0,12,3.9,12,11.854V15.9c0,5.3-1.693,8.762-5.3,10.455,4.05,1.693,5.375,5.6,5.375,10.971v7.952a15.178,15.178,0,0,0,.884,6.258ZM389.47,7.362v15.83h3.166c3.019,0,4.86-1.325,4.86-5.449v-5.08c0-3.681-1.252-5.3-4.123-5.3Z" transform="translate(-314.368 0.001)" fill="#fff"/>
      <path id="Tracé_13" data-name="Tracé 13" d="M566.039,51.54h-8.173l-1.4-9.351h-9.94l-1.4,9.351h-7.436L545.938,0h11.855ZM547.558,35.194h7.8l-3.9-26.065Z" transform="translate(-443.224 0.001)" fill="#fff"/>
      <path id="Tracé_14" data-name="Tracé 14" d="M731.02,31l-2.5,4.712V51.54h-8.1V0h8.1V22.457L739.119,0h8.1L735.953,22.972,747.218,51.54H738.9Z" transform="translate(-593.846 0)" fill="#fff"/>
      <path id="Tracé_15" data-name="Tracé 15" d="M889.068,34.458,878.833,0H887.3l6.185,23.488L899.67,0H907.4L897.167,34.458V51.54h-8.1Z" transform="translate(-724.43 0.001)" fill="#fff"/>
      <rect id="Rectangle_23" data-name="Rectangle 23" width="106.361" height="37.527" transform="translate(66.305 54.191) rotate(-3.292)" fill="#fff"/>
      <path id="Tracé_16" data-name="Tracé 16" d="M446.536,342.073,446,316.285a.905.905,0,0,1,.9-.964l2.3-.053a.828.828,0,0,1,.964.9l.2,22.753,9.791-2.15a.827.827,0,0,1,1.078.811l.324,2.877a.852.852,0,0,1-.815,1l-13.2,1.513a.856.856,0,0,1-1-.894" transform="translate(-367.645 -259.877)" fill="#fff"/>
      <path id="Tracé_17" data-name="Tracé 17" d="M529.944,352.676c-.364-6.325,4.541-10.692,10.667-11.044l1.349,0c1.588.027,2.936.7,3.036,2.442.118,2.056-1.438,6.032-7.381,13.711a14.277,14.277,0,0,0,6.514.855l.748-.083a.786.786,0,0,1,.834.706l.29,2.283a.718.718,0,0,1-.706.834l-.828.087c-6.838.394-14.078-2.046-14.523-9.793m11.145-6.193-.053-.235c-.141-.388-.436-.688-1.227-.643a4.8,4.8,0,0,0-1.332.275,7.05,7.05,0,0,0-4.73,6.023v.675a5.738,5.738,0,0,0,.912,2.763c1.369-1.7,6.542-6.92,6.431-8.857" transform="translate(-436.822 -281.61)" fill="#fff"/>
      <path id="Tracé_18" data-name="Tracé 18" d="M631.471,355.793l-.018-.316c-.211-5.738,6.822-7.57,11.279-7.985l.233-.093a3.924,3.924,0,0,0-3.228-3.026l-.079,0a2.308,2.308,0,0,0-.755-.036c-1.858.107-2.971,1.44-3.752,3.032a.907.907,0,0,1-1.24.507l-1.829-.767a.825.825,0,0,1-.5-1.161c1.383-2.856,3.743-5.252,7.024-5.44,3.716-.214,7.846,2.642,8.148,6.511l.1.986c.091,1.581.053,3.685.095,5.785.007,2.181.013,4.362.09,5.705l.014.237a.21.21,0,0,1-.224.251l-2.8.24a.728.728,0,0,1-.794-.708l-.043-.751c-1.627,1.362-3.728,2.752-5.942,2.88-3.36.193-5.472-2.739-5.77-5.855m11.646-2.3-.008-2.22-.04,0c-2.011.195-7.827,1.124-7.817,4.059a.2.2,0,0,0,.046.116,3.311,3.311,0,0,0,.533,1.675,1.313,1.313,0,0,0,.75.631,1.006,1.006,0,0,0,.518.05c1.977-.114,4.826-2.974,6.018-4.312" transform="translate(-520.508 -280.677)" fill="#fff"/>
      <path id="Tracé_19" data-name="Tracé 19" d="M741.372,351.143l-1.567-18.272a.852.852,0,0,1,.815-1l1.974-.153a.852.852,0,0,1,1,.815l.11,1.223a18.75,18.75,0,0,1,1.535-1.6A6.4,6.4,0,0,1,748.2,330.6l.63-.076a3.651,3.651,0,0,1,2.886,1.222,7.171,7.171,0,0,1,1.136,1.838.81.81,0,0,1-.529,1.14l-1.907.625a1.086,1.086,0,0,1-1.257-.483.9.9,0,0,0-.779-.431c-1.651.254-3.906,5.182-4.008,6.854l.785,9.513a.852.852,0,0,1-.815,1l-1.974.153a.853.853,0,0,1-1-.815" transform="translate(-609.821 -272.452)" fill="#fff"/>
      <path id="Tracé_20" data-name="Tracé 20" d="M843.093,345.537l-1.99-.124a.809.809,0,0,1-.847-.943,79.077,79.077,0,0,0,.019-7.933c-.214-3.715-.831-6.179-1.934-7.424a2.195,2.195,0,0,0-1.906-.724c-1.344.077-3.236.979-5.639,2.624l1.2,14.01a.852.852,0,0,1-.815,1l-1.974.153a.853.853,0,0,1-1-.815l-1.566-18.272a.852.852,0,0,1,.815-1l2.446-.22a.448.448,0,0,1,.5.408l.025.435a13.844,13.844,0,0,1,5.985-2.129,5.683,5.683,0,0,1,4.8,2.024c1.655,1.888,2.56,5.207,2.84,10.069a76.322,76.322,0,0,1-.017,7.972.856.856,0,0,1-.94.887" transform="translate(-681.403 -267.549)" fill="#fff"/>
    </g>
  </g>
</svg>
