<svg id="Groupe_10" data-name="Groupe 10" xmlns="http://www.w3.org/2000/svg" xmlns:xlink="http://www.w3.org/1999/xlink" width="192.963" height="83.06" viewBox="0 0 192.963 83.06">
  <defs>
    <clipPath id="clip-path">
      <rect id="Rectangle_26" data-name="Rectangle 26" width="192.963" height="83.06" fill="#fff"/>
    </clipPath>
  </defs>
  <g id="Groupe_7" data-name="Groupe 7">
    <g id="Groupe_6" data-name="Groupe 6" clip-path="url(#clip-path)">
      <path id="Tracé_24" data-name="Tracé 24" d="M74.638,43.057c-3.187,0-6.406,0-9.624,0-1.392,0-2.783-.023-4.175-.019-1.278,0-1.389.1-1.239,1.343a40.624,40.624,0,0,0,5.013,16.048c.475.807.965,1.605,1.51,2.512a23.672,23.672,0,0,1-3.6-.413c-.5-.131-.941-.81-1.232-1.339a38.591,38.591,0,0,1-3.947-10.4A41.484,41.484,0,0,1,77.768,5.2,39.24,39.24,0,0,1,96.959,0a40.783,40.783,0,0,1,29.4,11.516,40.1,40.1,0,0,1,10.351,15.77c1.019,2.859,1.393,5.941,2.23,8.874a2.875,2.875,0,0,1-1.218,3.452c-1.279.978-2.466,2.078-3.773,3.014a3.262,3.262,0,0,1-1.769.487q-5.264.068-10.53.008c-.724-.007-.79.308-.848.9-.323,3.265-.693,6.526-1.053,9.787a2.227,2.227,0,0,1-.125.437,25.225,25.225,0,0,1-2.675-.893c-.222-.1-.379-.695-.318-1.014a36.483,36.483,0,0,0,.644-8.293c-.012-.31,0-.621,0-.989-2.761,0-5.439,0-8.118,0-2.53,0-5.061-.046-7.591,0a17.89,17.89,0,0,0-2.552.428c-.322-.37-.88-.961-1.38-1.6a3.113,3.113,0,0,0-2.685-1.244,2.833,2.833,0,0,0-2.731,1.494,2.02,2.02,0,0,1-2.1,1.052c-3.761-.1-7.524-.078-11.287-.117-.641-.007-.806.277-.766.876a76.14,76.14,0,0,0,2.045,14.407,10.266,10.266,0,0,0,.436,1.123c-1.933.291-2.836,1-2.724,3.828H69.283l-.072-.13c.433-.2.855-.422,1.3-.582,1.867-.672,3.725-1.376,5.62-1.959.825-.254,1.088-.641.869-1.432A67.448,67.448,0,0,1,74.74,43.305a1.056,1.056,0,0,0-.1-.249M120.9,39.92c4.8,0,9.471-.009,14.145.009.731,0,.947-.283.834-.979-.337-2.082-.542-4.19-.983-6.249a38.131,38.131,0,0,0-6.161-13.6c-.279-.406-.547-.772-1.144-.422a32.608,32.608,0,0,1-8.327,3.286,9.4,9.4,0,0,0-1.112.444c1.856,5.732,2.273,11.574,2.747,17.514m-21.425-15a1.514,1.514,0,0,0-.058.317c.012,4.675.036,9.351.033,14.026,0,.608.3.628.773.628q8.111,0,16.221.033h.827c0-.3.013-.51,0-.721-.207-2.891-.295-5.8-.669-8.667-.292-2.239-.948-4.431-1.432-6.645-.136-.622-.5-.794-1.1-.683-1.178.221-2.354.479-3.544.607-3.641.393-7.287.732-11.05,1.1m-32.21-6.305a38.625,38.625,0,0,0-7.705,21.25H74.537c.39-3.455.7-6.843,1.181-10.205.3-2.051.866-4.062,1.31-6.093.27-1.234.212-1.307-.989-1.641-.94-.262-1.894-.5-2.8-.854-1.962-.766-3.9-1.6-5.971-2.457m28.7,6.194c-.963-.053-1.82-.055-2.665-.154-3.979-.468-7.957-.945-11.93-1.461-.688-.089-.957.112-1.123.763A80.532,80.532,0,0,0,78.072,39.1c-.037.623.129.83.773.825,4.487-.038,8.975-.043,13.462-.057,1.217,0,2.434,0,3.665,0ZM99.442,3.459c0,.749,0,1.344,0,1.938,0,4.827.017,9.654,0,14.481,0,1.534-.039,1.564,1.534,1.419,3.987-.367,7.97-.782,11.958-1.135.885-.078.873-.492.637-1.129a30.189,30.189,0,0,0-7.84-12.319,15.381,15.381,0,0,0-6.291-3.255M95.962,21.493v-18a15.74,15.74,0,0,0-6.1,3.225c-3.88,3.424-6.141,7.878-8.062,12.554-.222.539.019.76.532.825,1.033.13,2.063.294,3.1.4,3.482.343,6.965.665,10.535,1M69.583,15.853a2.528,2.528,0,0,0,.6.467c2.523.9,5.053,1.773,7.579,2.66.512.18.681-.019.865-.511a35.788,35.788,0,0,1,7.45-12.625,4.992,4.992,0,0,0,.465-.672,36.122,36.122,0,0,0-16.956,10.68m56.519-.023A38.566,38.566,0,0,0,109.058,5.12a2.75,2.75,0,0,0,.479.786c1.449,1.983,3.045,3.879,4.3,5.98a54.472,54.472,0,0,1,2.915,6.241c.316.728.631,1.065,1.469.756,1.685-.621,3.41-1.136,5.094-1.76.9-.334,1.752-.806,2.793-1.294" transform="translate(-44.303 0)" fill="#fff"/>
      <path id="Tracé_25" data-name="Tracé 25" d="M60.789,185.621c.681.753,1.421,1.659,2.269,2.45a1.592,1.592,0,0,0,1.194.1c1.539-.329,3.057-.755,4.6-1.079a7.72,7.72,0,0,1,4.2.381c1.815.637,2.141,1.925.768,3.3a13.513,13.513,0,0,1-6.564,3.394c-2.312.567-2.318.535-2.72,2.879-.09.524-.2,1.045-.31,1.577.1.057.172.135.253.143,1.6.153,1.6.151,1.829,1.681.149,1.014-.1,1.348-1.134,1.51-1.586.249-1.828.607-2.084,2.166-.393,2.393-.918,4.765-1.385,7.147-.073.371-.1.753-.206,1.114-.11.38.032.937-.67.946-.65.009-1.179-.207-1.309-.842a25.721,25.721,0,0,1-.377-2.9c-.339-3.869-.657-7.739-.986-11.609-.024-.282-.1-.561-.117-.843-.047-.737-.515-.762-1.071-.658-2.42.452-4.835.942-7.263,1.345-2.676.443-5.366.806-8.148,1.218-.908,1.579-.378,4.121-2.941,5.162-.07-1.284-.138-2.375-.184-3.467-.02-.471-.1-.8-.706-.707a75.984,75.984,0,0,1-14.193.392A37.787,37.787,0,0,1,9.115,197.19c-3.472-1.58-6.417-3.792-8.044-7.4A12.864,12.864,0,0,1,1.3,179.048c1.972-4.623,5.233-8.3,8.889-11.661.041-.038.115-.04.235-.078-.135,1.53-.233,3.041-.428,4.539a2.318,2.318,0,0,1-.647,1.013,29.324,29.324,0,0,0-4.586,6.59A11.549,11.549,0,0,0,3.414,186.3c.507,3.074,2.429,5.128,4.94,6.733A24.988,24.988,0,0,0,17,196.244a60.861,60.861,0,0,0,16.05.854c1.408-.089,2.812-.239,4.382-.375l-1.673-2.989a1.8,1.8,0,0,1,2.3.244c.772.651,1.451,1.413,2.228,2.057a1.31,1.31,0,0,0,1.048.294c4.929-1.856,9.84-3.758,14.754-5.654a2.373,2.373,0,0,0,.357-.226c-1.175-2.42-2.351-4.821-3.507-7.232-1.077-2.247-2.154-4.494-3.176-6.766a1.651,1.651,0,0,1-.036-1.3c.533-.922,1.091-.909,1.857-.044,1.948,2.2,3.9,4.4,5.8,6.638a1.269,1.269,0,0,0,1.523.545c.208-.068.438-.063.654-.111,1.583-.349,2.3.165,2.216,1.808-.027.514-.593,1-1,1.63" transform="translate(0 -131.673)" fill="#fff"/>
      <path id="Tracé_26" data-name="Tracé 26" d="M381.6,51.78c1.288.219,2.574.46,3.866.653a30.116,30.116,0,0,1,11.327,3.78c3.748,2.265,6.339,5.4,6.9,9.879a14.108,14.108,0,0,1-1.577,7.873,34.694,34.694,0,0,1-10.049,12.167C389.484,88.2,386.7,90,384.036,91.975a2.743,2.743,0,0,0-.756,1.214,3.213,3.213,0,0,1-3.952,2.2,3.061,3.061,0,0,1,1.705-5.88,1.169,1.169,0,0,0,.793-.079c6.63-4.073,12.648-8.81,16.714-15.618a12.176,12.176,0,0,0,1.778-7.7c-.345-3.169-2.353-5.222-4.872-6.854a25.728,25.728,0,0,0-9.567-3.4,3.323,3.323,0,0,1-2.185-1.316c-.668-.871-1.442-1.659-2.17-2.483l.073-.277" transform="translate(-296.83 -40.751)" fill="#fff"/>
      <path id="Tracé_27" data-name="Tracé 27" d="M319.851,245.389a37.71,37.71,0,0,0,5.454-10.862,2.06,2.06,0,0,1,.517-.989c1.236-1.01,2.522-1.959,4.009-3.1a41.882,41.882,0,0,1-30.562,32.616c.051-.526.055-.952.139-1.361.476-2.314.946-4.63,1.485-6.93a1.533,1.533,0,0,1,.8-.882c2.194-.988,2.826-2.158,2.347-4.524-.443-2.191.15-3.2,2.148-4.226,1.53-.788,2.935-1.815,4.424-2.687a1.456,1.456,0,0,1,1.081-.164c2.684.985,5.348,2.026,8.163,3.107m-2.3,2.9a3.173,3.173,0,0,0-.541-.385c-2.374-.933-4.745-1.877-7.134-2.77-1.266-.473-1.292-.435-1.755.8a35.1,35.1,0,0,1-7.208,12.33,5.251,5.251,0,0,0-.542.827l.191.214a39.95,39.95,0,0,0,16.989-11.013" transform="translate(-235.525 -181.358)" fill="#fff"/>
      <path id="Tracé_28" data-name="Tracé 28" d="M115.737,320.731c1.409,0,2.819-.037,4.225.025a2.145,2.145,0,0,1,1.08.526,45.452,45.452,0,0,0,11.156,6.15,7.117,7.117,0,0,0,1.255.212l-2.792-3.276,2.6-1.8c1.349,1.3,2.7,2.747,4.2,4.012a12.507,12.507,0,0,0,5.337,2.577c0-.794,0-1.477,0-2.161,0-2.78.016-5.56-.011-8.34-.007-.668.178-.961.892-1a25.517,25.517,0,0,0,2.549-.4v11.9l1.709-.434.625,3.918c-12.569.772-23.613-2.935-32.823-11.919" transform="translate(-91.085 -249.689)" fill="#fff"/>
      <path id="Tracé_29" data-name="Tracé 29" d="M175.911,261.533c1.359-.1,2.632-.2,3.9-.3,3.045-.253,6.087-.548,9.135-.75.9-.059,1.351-.272,1.219-1.263a13.85,13.85,0,0,1-.015-1.822l.33-.064c.117.217.252.428.347.655.084.2.117.423.185.632.163.5.614,1.192.435,1.445-.268.378-.976.443-1.5.645-2.962,1.149-5.937,2.264-8.876,3.469a1.713,1.713,0,0,1-2.182-.329,31.475,31.475,0,0,0-2.987-2.316" transform="translate(-138.443 -202.522)" fill="#fff"/>
    </g>
  </g>
  <text id="Sodif" transform="translate(113.406 49.42)" fill="#fff" font-size="23" font-family="FormaDJRMicro-Black, Forma DJR Micro" font-weight="800"><tspan x="0" y="0">Sodif</tspan></text>
  <g id="Groupe_9" data-name="Groupe 9">
    <g id="Groupe_8" data-name="Groupe 8" clip-path="url(#clip-path)">
      <text id="Shipping" transform="translate(105.684 68.578)" fill="#fff" font-size="19" font-family="FormaDJRMicro-Regular, Forma DJR Micro"><tspan x="0" y="0">Shipping</tspan></text>
    </g>
  </g>
</svg>
