<svg id="Groupe_40" data-name="Groupe 40" xmlns="http://www.w3.org/2000/svg" xmlns:xlink="http://www.w3.org/1999/xlink" width="106" height="32.999" viewBox="0 0 106 32.999">
  <defs>
    <clipPath id="clip-path">
      <rect id="Rectangle_91" data-name="Rectangle 91" width="106" height="32.999" transform="translate(0 0)" fill="#ffeaea"/>
    </clipPath>
  </defs>
  <g id="Groupe_39" data-name="Groupe 39" clip-path="url(#clip-path)">
    <path id="Tracé_49" data-name="Tracé 49" d="M31.779,16.762A15.889,15.889,0,1,0,15.89,32.651c.093,0,.186,0,.279-.006V20.281H12.755V16.3h3.414v-2.93c0-3.4,2.073-5.245,5.1-5.245a27.572,27.572,0,0,1,3.06.156v3.55H22.245c-1.644,0-1.967.782-1.967,1.93V16.3h3.941L23.7,20.275H20.278V32.037a15.9,15.9,0,0,0,11.5-15.275" fill="#ffeaea"/>
    <path id="Tracé_50" data-name="Tracé 50" d="M52.694,0A16.416,16.416,0,1,0,69.11,16.416,16.418,16.418,0,0,0,52.694,0m-4.77,24.816h-4V12.788h4Zm-2-13.67H45.9a2.285,2.285,0,1,1,.027,0M62.34,24.816h-4V18.381c0-1.617-.579-2.72-2.025-2.72a2.191,2.191,0,0,0-2.052,1.462,2.735,2.735,0,0,0-.131.976v6.717h-4s.051-10.9,0-12.028h4v1.7a3.971,3.971,0,0,1,3.6-1.985c2.631,0,4.6,1.719,4.6,5.413Z" fill="#ffeaea"/>
    <path id="Tracé_51" data-name="Tracé 51" d="M89.5,13.035A3.465,3.465,0,1,1,86.036,16.5,3.464,3.464,0,0,1,89.5,13.035" fill="#ffeaea"/>
    <path id="Tracé_52" data-name="Tracé 52" d="M89.5,0A16.5,16.5,0,1,0,106,16.5,16.5,16.5,0,0,0,89.5,0M99.694,20.693a6.245,6.245,0,0,1-1.663,4.247,6.359,6.359,0,0,1-4.292,1.645H85.262a6.357,6.357,0,0,1-4.293-1.645,6.245,6.245,0,0,1-1.663-4.247V12.306a6.243,6.243,0,0,1,1.663-4.247,6.362,6.362,0,0,1,4.293-1.645h8.477a6.353,6.353,0,0,1,4.292,1.645,6.243,6.243,0,0,1,1.663,4.247Z" fill="#ffeaea"/>
    <path id="Tracé_53" data-name="Tracé 53" d="M93.632,8.325c-2.065-.056-6.2-.056-8.262,0A4.335,4.335,0,0,0,82.311,9.44a4.385,4.385,0,0,0-1.126,3.026c-.054,2.016,0,8.068,0,8.068a4.409,4.409,0,0,0,1.126,3.026,4.335,4.335,0,0,0,3.059,1.115c2.064.056,6.2.056,8.262,0A4.33,4.33,0,0,0,96.69,23.56a4.386,4.386,0,0,0,1.127-3.026V12.466A4.386,4.386,0,0,0,96.69,9.44,4.334,4.334,0,0,0,93.632,8.325ZM89.5,21.871a5.371,5.371,0,1,1,5.37-5.371,5.371,5.371,0,0,1-5.37,5.371m5.393-9.633a1.074,1.074,0,1,1,1.074-1.074A1.074,1.074,0,0,1,94.894,12.238Z" fill="#ffeaea"/>
  </g>
</svg>
