<svg id="Groupe_33" data-name="Groupe 33" xmlns="http://www.w3.org/2000/svg" xmlns:xlink="http://www.w3.org/1999/xlink" width="109" height="46.919" viewBox="0 0 109 46.919">
  <defs>
    <clipPath id="clip-path">
      <rect id="Rectangle_62" data-name="Rectangle 62" width="109" height="46.919"/>
    </clipPath>
  </defs>
  <g id="Groupe_30" data-name="Groupe 30">
    <g id="Groupe_29" data-name="Groupe 29" clip-path="url(#clip-path)">
      <path id="Tracé_42" data-name="Tracé 42" d="M66.656,24.322c-1.8,0-3.618,0-5.437,0-.786,0-1.572-.013-2.358-.011-.722,0-.784.057-.7.758a22.948,22.948,0,0,0,2.832,9.065c.268.456.545.907.853,1.419a13.371,13.371,0,0,1-2.031-.233c-.281-.074-.532-.458-.7-.756a21.8,21.8,0,0,1-2.23-5.876A23.434,23.434,0,0,1,68.424,2.935,22.166,22.166,0,0,1,79.264,0,23.038,23.038,0,0,1,95.872,6.506a22.653,22.653,0,0,1,5.847,8.908c.575,1.615.787,3.356,1.26,5.013a1.624,1.624,0,0,1-.688,1.95c-.722.552-1.393,1.174-2.131,1.7a1.843,1.843,0,0,1-1,.275q-2.974.038-5.948,0c-.409,0-.446.174-.479.507-.182,1.844-.391,3.686-.595,5.528a1.259,1.259,0,0,1-.071.247,14.25,14.25,0,0,1-1.511-.5c-.125-.056-.214-.392-.18-.573a20.607,20.607,0,0,0,.364-4.685c-.007-.175,0-.351,0-.559-1.56,0-3.073,0-4.586,0-1.429,0-2.859-.026-4.288,0a10.105,10.105,0,0,0-1.442.242c-.182-.209-.5-.543-.78-.9a1.759,1.759,0,0,0-1.517-.7,1.6,1.6,0,0,0-1.543.844,1.141,1.141,0,0,1-1.187.594c-2.124-.056-4.25-.044-6.376-.066-.362,0-.455.156-.433.495a43.01,43.01,0,0,0,1.155,8.138,5.8,5.8,0,0,0,.247.634c-1.092.165-1.6.563-1.539,2.162H63.631l-.041-.074c.245-.111.483-.238.735-.329,1.055-.379,2.1-.777,3.175-1.107.466-.144.615-.362.491-.809a38.1,38.1,0,0,1-1.277-8.977.6.6,0,0,0-.058-.14M92.79,22.55c2.71,0,5.35,0,7.99,0,.413,0,.535-.16.471-.553-.19-1.176-.306-2.367-.555-3.53a21.539,21.539,0,0,0-3.48-7.684c-.157-.229-.309-.436-.646-.239a18.419,18.419,0,0,1-4.7,1.856,5.312,5.312,0,0,0-.628.251A42.521,42.521,0,0,1,92.79,22.55m-12.1-8.474a.855.855,0,0,0-.033.179c.007,2.641.02,5.282.019,7.923,0,.344.169.355.437.355q4.582,0,9.163.019h.467c0-.168.007-.288,0-.407-.117-1.633-.167-3.275-.378-4.9-.165-1.265-.535-2.5-.809-3.754-.077-.351-.284-.449-.621-.386-.665.125-1.33.27-2,.343-2.057.222-4.116.414-6.242.624M62.492,10.514a21.818,21.818,0,0,0-4.353,12H66.6c.22-1.952.393-3.865.667-5.765.167-1.159.489-2.295.74-3.442.152-.7.12-.738-.559-.927-.531-.148-1.07-.283-1.582-.482-1.108-.433-2.2-.9-3.373-1.388m16.214,3.5c-.544-.03-1.028-.031-1.505-.087-2.248-.264-4.495-.534-6.739-.825-.389-.051-.541.063-.634.431A45.491,45.491,0,0,0,68.6,22.084c-.021.352.073.469.436.466,2.535-.022,5.07-.025,7.6-.032.687,0,1.375,0,2.07,0ZM80.667,1.954c0,.423,0,.759,0,1.095,0,2.727.01,5.453,0,8.18,0,.867-.022.884.866.8,2.252-.207,4.5-.442,6.755-.641.5-.044.493-.278.36-.638a17.053,17.053,0,0,0-4.429-6.959,8.688,8.688,0,0,0-3.554-1.839M78.7,12.141V1.971a8.891,8.891,0,0,0-3.448,1.821A18.271,18.271,0,0,0,70.7,10.884c-.125.3.011.43.3.466.584.074,1.166.166,1.751.224,1.967.194,3.935.376,5.951.567M63.8,8.955a1.428,1.428,0,0,0,.337.264c1.425.507,2.855,1,4.281,1.5.289.1.385-.01.489-.289A20.216,20.216,0,0,1,73.116,3.3a2.82,2.82,0,0,0,.263-.379A20.4,20.4,0,0,0,63.8,8.955m31.926-.013A21.785,21.785,0,0,0,86.1,2.892a1.554,1.554,0,0,0,.27.444c.819,1.12,1.72,2.191,2.427,3.378a30.77,30.77,0,0,1,1.646,3.525c.179.411.356.6.83.427.952-.351,1.926-.642,2.877-.994.509-.189.989-.455,1.578-.731" transform="translate(-49.521 0)"/>
      <path id="Tracé_43" data-name="Tracé 43" d="M34.338,177.653c.385.425.8.937,1.282,1.384a.9.9,0,0,0,.674.054c.869-.186,1.727-.426,2.6-.609a4.361,4.361,0,0,1,2.371.215c1.025.36,1.209,1.088.434,1.863a7.633,7.633,0,0,1-3.708,1.917c-1.306.32-1.309.3-1.536,1.627-.051.3-.116.59-.175.891.055.032.1.077.143.081.906.086.906.085,1.033.95.084.573-.058.761-.641.853-.9.141-1.032.343-1.177,1.224-.222,1.352-.519,2.692-.782,4.037-.041.209-.057.425-.116.629s.018.529-.378.535c-.367.005-.666-.117-.739-.476a14.529,14.529,0,0,1-.213-1.638c-.192-2.185-.371-4.372-.557-6.557-.014-.159-.056-.317-.066-.476-.026-.416-.291-.43-.605-.372-1.367.255-2.731.532-4.1.76-1.512.25-3.031.455-4.6.688-.513.892-.214,2.328-1.661,2.916-.039-.725-.078-1.342-.1-1.958-.011-.266-.055-.451-.4-.4a42.923,42.923,0,0,1-8.018.222,21.346,21.346,0,0,1-8.142-1.822A8.491,8.491,0,0,1,.6,180.006a7.267,7.267,0,0,1,.128-6.065,19.458,19.458,0,0,1,5.021-6.587c.023-.021.065-.023.133-.044-.077.864-.131,1.718-.242,2.564a1.31,1.31,0,0,1-.365.572,16.563,16.563,0,0,0-2.59,3.722,6.524,6.524,0,0,0-.761,3.871,5.548,5.548,0,0,0,2.79,3.8,14.115,14.115,0,0,0,4.887,1.811,34.379,34.379,0,0,0,9.066.483c.8-.05,1.589-.135,2.475-.212l-.945-1.688a1.017,1.017,0,0,1,1.3.138c.436.368.819.8,1.258,1.162a.74.74,0,0,0,.592.166c2.784-1.048,5.558-2.123,8.334-3.194a1.339,1.339,0,0,0,.2-.128c-.664-1.367-1.328-2.723-1.981-4.085-.608-1.269-1.217-2.539-1.794-3.822a.933.933,0,0,1-.02-.733c.3-.521.617-.513,1.049-.025,1.1,1.243,2.2,2.483,3.277,3.75a.717.717,0,0,0,.86.308c.117-.038.247-.036.369-.063.894-.2,1.3.093,1.252,1.021-.015.29-.335.565-.562.921" transform="translate(0 -147.179)"/>
      <path id="Tracé_44" data-name="Tracé 44" d="M379.669,51.78c.728.124,1.454.26,2.184.369a17.012,17.012,0,0,1,6.4,2.135,7.462,7.462,0,0,1,3.9,5.58,7.969,7.969,0,0,1-.891,4.447,19.6,19.6,0,0,1-5.676,6.873c-1.46,1.166-3.034,2.188-4.537,3.3a1.549,1.549,0,0,0-.427.686,1.815,1.815,0,0,1-2.232,1.244,1.729,1.729,0,0,1,.963-3.321.66.66,0,0,0,.448-.045c3.745-2.3,7.144-4.977,9.442-8.822a6.878,6.878,0,0,0,1-4.352A5.283,5.283,0,0,0,387.492,56a14.533,14.533,0,0,0-5.4-1.92,1.877,1.877,0,0,1-1.234-.743c-.377-.492-.815-.937-1.226-1.4l.041-.157" transform="translate(-331.785 -45.55)"/>
      <path id="Tracé_45" data-name="Tracé 45" d="M310.895,238.885a21.3,21.3,0,0,0,3.081-6.136,1.163,1.163,0,0,1,.292-.559c.7-.57,1.425-1.107,2.264-1.75a23.658,23.658,0,0,1-17.264,18.424c.029-.3.031-.538.079-.769.269-1.307.534-2.615.839-3.914a.866.866,0,0,1,.449-.5,1.945,1.945,0,0,0,1.326-2.555,1.852,1.852,0,0,1,1.214-2.387c.864-.445,1.658-1.025,2.5-1.518a.822.822,0,0,1,.61-.093c1.516.556,3.021,1.144,4.611,1.755m-1.3,1.636a1.79,1.79,0,0,0-.306-.218c-1.341-.527-2.68-1.06-4.03-1.565-.715-.267-.73-.246-.992.45a19.826,19.826,0,0,1-4.072,6.965,2.963,2.963,0,0,0-.306.467l.108.121a22.567,22.567,0,0,0,9.6-6.221" transform="translate(-263.261 -202.715)"/>
      <path id="Tracé_46" data-name="Tracé 46" d="M115.737,319.223c.8,0,1.593-.021,2.387.014a1.212,1.212,0,0,1,.61.3,25.674,25.674,0,0,0,6.3,3.474,4.023,4.023,0,0,0,.709.12l-1.577-1.85,1.47-1.015c.762.736,1.524,1.552,2.371,2.266a7.065,7.065,0,0,0,3.015,1.456c0-.448,0-.835,0-1.221,0-1.57.009-3.141-.006-4.711,0-.377.1-.543.5-.565a14.419,14.419,0,0,0,1.44-.223v6.723l.965-.245.353,2.213a23.351,23.351,0,0,1-18.541-6.733" transform="translate(-101.812 -279.093)"/>
      <path id="Tracé_47" data-name="Tracé 47" d="M175.911,259.706c.767-.059,1.487-.111,2.206-.171,1.72-.143,3.438-.31,5.16-.423.508-.034.763-.154.689-.714a7.825,7.825,0,0,1-.008-1.029l.186-.036c.066.123.142.242.2.37s.066.239.1.357c.092.282.347.674.246.816-.151.213-.551.25-.845.364-1.673.649-3.354,1.279-5.014,1.96a.968.968,0,0,1-1.233-.186,17.777,17.777,0,0,0-1.687-1.308" transform="translate(-154.746 -226.372)"/>
    </g>
  </g>
  <text id="Sodif" transform="translate(64.06 29.054)" font-size="14" font-family="FormaDJRMicro-Black, Forma DJR Micro" font-weight="800"><tspan x="0" y="0">Sodif</tspan></text>
  <g id="Groupe_32" data-name="Groupe 32">
    <g id="Groupe_31" data-name="Groupe 31" clip-path="url(#clip-path)">
      <text id="Shipping" transform="translate(59.699 39.135)" font-size="11" font-family="FormaDJRMicro-Regular, Forma DJR Micro"><tspan x="0" y="0">Shipping</tspan></text>
    </g>
  </g>
</svg>
